<?xml version="1.0" encoding="UTF-8"?>
<svg id="basketball" xmlns="http://www.w3.org/2000/svg" viewBox="0 0 158 148">
  <defs>
    <style>
      .cls-1 {
        fill: none;
        stroke: #231f20;
        stroke-miterlimit: 10;
        stroke-width: 3px;
      }

      .cls-2 {
        fill: #231f20;
      }
    </style>
  </defs>
  <ellipse id="ball-shape" class="cls-1" cx="79" cy="74" rx="77.5" ry="72.5"/>
  <g id="groove-line">
    <path class="cls-2" d="m.76,72.09c1.7,8.6,9.98,14.14,18.47,14.09,8.94-.05,17.42-5,23.23-11.56,6.63-7.48,10.58-16.75,15.5-25.34s10.76-15.99,17.61-22.77c7.72-7.64,16.44-14.19,25.73-19.79.47-.28.78-.8.24-1.17s-1.57-.03-2.05.26c-15.59,9.41-29.78,21.56-40.06,36.7-5.34,7.86-9.06,16.64-14.16,24.64-4.73,7.43-11.18,14.31-19.98,16.65-4.55,1.21-9.43.84-13.56-1.5s-7.14-6.33-8.06-10.98c-.2-1.03-3.11-.31-2.9.78h0Z"/>
  </g>
  <g id="groove-line-2" data-name="groove-line">
    <path class="cls-2" d="m148.66,43.58c-6.27,6.9-14.49,11.51-22.62,15.86-8.82,4.73-17.67,9.42-26.57,13.99-17.85,9.16-36.01,17.81-54.78,24.95-10.53,4-21.26,7.49-32.16,10.33-1.8.47-1.25,2.5.55,2.03,19.68-5.12,38.73-12.4,57.24-20.77s36.81-17.98,54.88-27.63c9.27-4.95,18.75-9.99,25.91-17.88.47-.52.22-1.19-.39-1.44-.68-.28-1.57.02-2.05.55h0Z"/>
  </g>
  <g id="groove-line-3" data-name="groove-line">
    <path class="cls-2" d="m35.16,130.74c3.16-6.09,9.81-9.3,16.43-9.93,8.7-.82,17.46,1.54,26.03,2.69,16.26,2.17,33.06,2.33,48.8-2.83,7.94-2.6,15.46-6.53,21.84-11.96.46-.39.33-.68-.22-.81-.58-.14-1.59.16-2.05.55-12.14,10.33-27.97,14.59-43.66,15.07-8.88.27-17.75-.58-26.52-1.9s-16.94-3.25-25.45-1.91c-7.22,1.14-14.59,4.75-18.08,11.46-.28.54,1,.46,1.2.43.57-.08,1.39-.32,1.68-.88h0Z"/>
  </g>
  <g id="groove-line-4" data-name="groove-line">
    <path class="cls-2" d="m77.67,146.03c-9.32-3.88-17.68-9.85-24.41-17.37s-12.12-16.71-16.81-25.83c-9.3-18.08-16.06-38.37-13.69-58.95,1.23-10.7,4.89-21.21,11.39-29.86.6-.8-2.19-.43-2.64.16-11.98,15.94-14.25,36.95-10.32,56.07,2.17,10.55,6.08,20.67,10.83,30.32,4.56,9.26,9.7,18.43,16.24,26.44,7.24,8.87,16.46,15.79,27.03,20.19.67.28,3.29-.79,2.37-1.18h0Z"/>
  </g>
</svg>