<?xml version="1.0" encoding="UTF-8"?>
<svg id="Layer_2" data-name="Layer 2" xmlns="http://www.w3.org/2000/svg" viewBox="0 0 186.5 147.5">
  <defs>
    <style>
      .cls-1 {
        fill: none;
        stroke: #231f20;
        stroke-miterlimit: 10;
        stroke-width: 2px;
      }
    </style>
  </defs>
  <circle class="cls-1" cx="44.5" cy="81.5" r="29.5"/>
  <circle class="cls-1" cx="142.5" cy="81.5" r="29.5"/>
  <circle class="cls-1" cx="142.87" cy="81.9" r="2.87"/>
  <circle class="cls-1" cx="84.53" cy="86.24" r="2.87"/>
  <circle class="cls-1" cx="43.53" cy="81.24" r="2.87"/>
  <path class="cls-1" d="m45.87,79.59l28.89-27.59-1.76-7-5-3s-5-4-3-4h18.35s2.02,1.66.65,2c-8,2-10,5.06-10,5.06"/>
  <line class="cls-1" x1="46" y1="83" x2="83" y2="93"/>
  <circle class="cls-1" cx="84.7" cy="86.12" r="7.12"/>
  <polyline class="cls-1" points="43.53 78.37 82.45 78.37 79.41 67.9 74.6 51.36"/>
  <line class="cls-1" x1="84.7" y1="86.41" x2="96" y2="97"/>
  <line class="cls-1" x1="91.82" y1="96.88" x2="98.35" y2="96.88"/>
  <path class="cls-1" d="m78,64h6.24s8.44.22,10.35-3.9l29.41-19.1"/>
  <line class="cls-1" x1="90.35" y1="80.8" x2="125" y2="45"/>
  <path class="cls-1" d="m140.59,78.37l-7.59-11.37-12-35s0-1.76,1-1.88,4-3.12,4-3.12v-5s0-.63-.35-1.35c-.28-.57-.77-1.21-1.65-1.65l-2-.5-2-.5h-8.59s-1,.47.59,2h8s0,1,1-1-.68-1-.68-1"/>
</svg>