<?xml version="1.0" encoding="UTF-8"?>
<svg id="car" xmlns="http://www.w3.org/2000/svg" viewBox="0 0 225.32 123.89">
  <defs>
    <style>
      .cls-1 {
        fill: #fff;
      }

      .cls-1, .cls-2 {
        stroke: #231f20;
        stroke-miterlimit: 10;
      }

      .cls-2 {
        fill: #231f20;
      }
    </style>
  </defs>
  <path id="body" class="cls-2" d="m16.82,58.83c4-2,25.76,3.11,25.76,3.11,0,0,17.24,5.89,2.24,12.89s-29,0-29,0v12l1,1,1,24c14,26,37,0,37,0v-7h115v8c19.35,24,37-1,37-1,0,0-1-19,0-20l2-2s0-17,0-15-9.76,3-9.76,3h-9.24s-18-2-15-10,34-9,34-9l-5-8s13,0,16-1,5-9.41,5-9.41c0,0,0-8.59-7-8.59s-8,1-13,2-11,5-11,5l-20-29s-4-4-11-7-27.53-2.25-27.53-2.25l-45.47.25s4-1-17,1-22,10-22,10c-4,1-19,26-19,26-6-4-9-4-9-4,0,0-12-2-18-1S.82,43.83.82,43.83c0,0,2,5,5.53,7s13.47,0,13.47,0l-3,6v2Z"/>
  <g id="window">
    <path class="cls-1" d="m41.32,41.33h141.38s-14.38-27-24.38-29-90.68,0-90.68,0c0,0-5.32-1-11.32,8s-15,21-15,21Z"/>
    <polygon class="cls-1" points="78.32 68.33 84.32 88.33 139.64 88.33 146 68.33 78.32 68.33"/>
  </g>
</svg>