<?xml version="1.0" encoding="UTF-8"?>
<svg id="construction" xmlns="http://www.w3.org/2000/svg" viewBox="0 0 271.03 278.52">
  <defs>
    <style>
      .cls-1 {
        fill: #231f20;
        stroke: #231f20;
        stroke-miterlimit: 10;
      }
    </style>
  </defs>
  <path id="crane" class="cls-1" d="m61.53,170.02v-21.76s1-.24-2-6.24v-23.41s-3-7.59-9-5.59v3.12s4-1.12,5,3.88,0,23,0,23c0,0-3,1-3,5s0,24,0,24l-36,2s-2-1-3,3-6,17-6,17c0,0-1,4,2,5s24,19,24,19v8h12.35l.65,10h-30.12s-35.88,21,.12,42h125.71s41.29-18-.71-42h-32v-9h13v-8h25s-5-30-5-30L252.53,30.02l4,152h-4s-2,0-2,2v13s0,2,2,2h6v2.41s0,.59,1,1.59l7,7s3,4,0,7-11,6-14-4h-3s2,9,8,10,10-2,10-2c0,0,3-3,3-5s0-6-2-8l-7-7v-2h4s2,0,2-2v-13s0-2-2-2h-4l3-170s4-18-11-9l-30,35-40,34-64,51-51,1-1,43-6,3Z"/>
</svg>