<svg xmlns="http://www.w3.org/2000/svg" id="canvas" viewBox="418.828 359.661 1151.762 272.197"><path d="M 488.40,386.94 C 487.48 388.34, 487.58 390.22, 486.72 394.34 C 485.86 398.47, 485.33 401.41, 484.11 407.54 C 482.89 413.68, 482.28 417.42, 480.61 425.02 C 478.94 432.61, 478.02 437.10, 475.76 445.50 C 473.51 453.91, 471.91 458.45, 469.34 467.05 C 466.77 475.65, 465.47 480.00, 462.91 488.50 C 460.35 497.00, 458.92 501.68, 456.55 509.57 C 454.17 517.47, 453.09 521.43, 451.02 527.98 C 448.95 534.53, 448.02 537.47, 446.19 542.33 C 444.37 547.19, 443.09 549.12, 441.89 552.28 C 440.70 555.44, 440.55 556.41, 440.21 558.12 C 439.86 559.82, 439.93 560.15, 440.18 560.81 C 440.44 561.48, 440.80 561.68, 441.49 561.42 C 442.17 561.17, 442.63 561.02, 443.61 559.53 C 444.59 558.03, 445.20 557.18, 446.39 553.96 C 447.57 550.75, 448.06 548.48, 449.54 543.45 C 451.02 538.42, 451.89 535.44, 453.78 528.81 C 455.68 522.18, 456.71 518.22, 459.00 510.29 C 461.28 502.37, 462.68 497.70, 465.22 489.19 C 467.76 480.68, 469.06 476.35, 471.69 467.76 C 474.31 459.16, 475.93 454.62, 478.32 446.21 C 480.72 437.81, 481.76 433.30, 483.66 425.73 C 485.56 418.16, 486.36 414.48, 487.84 408.36 C 489.32 402.25, 490.38 399.37, 491.08 395.16 C 491.77 390.95, 491.86 388.95, 491.33 387.31 C 490.79 385.66, 489.32 385.53, 488.40 386.94" style="stroke: black; fill: black;"/><path d="M 423.12,386.72 C 424.07 387.17, 424.54 387.16, 426.62 386.64 C 428.71 386.12, 429.52 385.30, 433.56 384.12 C 437.60 382.94, 440.31 381.94, 446.82 380.73 C 453.32 379.51, 457.64 379.10, 466.09 378.05 C 474.55 376.99, 479.62 376.55, 489.09 375.46 C 498.56 374.38, 503.91 373.47, 513.45 372.61 C 522.99 371.75, 528.08 371.66, 536.79 371.18 C 545.50 370.70, 550.23 370.20, 557.00 370.21 C 563.76 370.21, 566.21 370.74, 570.62 371.20 C 575.03 371.65, 576.72 372.29, 579.03 372.49 C 581.35 372.69, 581.45 372.17, 582.21 372.18 C 582.96 372.19, 582.47 372.55, 582.79 372.54 C 583.10 372.53, 583.67 372.63, 583.79 372.14 C 583.91 371.64, 584.20 370.93, 583.39 370.06 C 582.58 369.19, 582.23 368.32, 579.72 367.80 C 577.21 367.29, 575.40 367.58, 570.84 367.49 C 566.29 367.40, 563.79 367.11, 556.95 367.35 C 550.10 367.60, 545.38 368.14, 536.64 368.72 C 527.90 369.31, 522.81 369.43, 513.24 370.29 C 503.68 371.14, 498.32 372.03, 488.82 373.00 C 479.33 373.97, 474.29 374.36, 465.78 375.15 C 457.27 375.94, 452.95 376.20, 446.25 376.95 C 439.56 377.70, 436.63 378.03, 432.28 378.89 C 427.94 379.75, 426.59 380.14, 424.52 381.25 C 422.44 382.35, 422.18 383.32, 421.90 384.41 C 421.62 385.51, 422.18 386.28, 423.12 386.72" style="stroke: black; fill: black;"/><path d="M 622.31,362.94 C 620.98 363.64, 620.02 364.85, 618.19 367.93 C 616.37 371.02, 615.76 373.13, 613.18 378.38 C 610.60 383.64, 608.95 387.24, 605.29 394.21 C 601.63 401.19, 599.34 405.19, 594.87 413.25 C 590.41 421.31, 588.03 425.92, 582.97 434.51 C 577.91 443.11, 575.00 447.77, 569.58 456.22 C 564.16 464.68, 561.25 468.94, 555.87 476.81 C 550.49 484.68, 547.57 488.65, 542.69 495.57 C 537.81 502.50, 535.26 506.05, 531.47 511.43 C 527.69 516.81, 525.75 518.96, 523.74 522.48 C 521.74 526.00, 520.99 527.61, 521.44 529.03 C 521.88 530.44, 523.85 531.15, 525.96 529.55 C 528.06 527.96, 528.88 525.37, 531.95 521.03 C 535.03 516.70, 536.59 513.58, 541.33 507.89 C 546.07 502.20, 549.29 498.72, 555.65 492.58 C 562.01 486.44, 565.88 482.81, 573.13 477.17 C 580.38 471.53, 584.61 468.63, 591.91 464.37 C 599.20 460.11, 603.30 458.19, 609.62 455.87 C 615.94 453.55, 619.10 452.94, 623.49 452.76 C 627.89 452.58, 629.36 453.18, 631.58 454.97 C 633.81 456.75, 634.24 457.88, 634.63 461.68 C 635.01 465.49, 634.73 468.32, 633.51 474.00 C 632.28 479.67, 631.00 483.44, 628.49 490.04 C 625.98 496.65, 624.22 500.42, 620.95 507.03 C 617.68 513.64, 615.26 517.36, 612.12 523.10 C 608.98 528.83, 607.52 531.58, 605.25 535.70 C 602.97 539.81, 601.73 541.07, 600.76 543.68 C 599.80 546.29, 600.21 547.42, 600.41 548.74 C 600.61 550.05, 601.34 550.01, 601.78 550.24 C 602.22 550.48, 602.33 550.14, 602.61 549.94 C 602.89 549.74, 602.56 550.09, 603.16 549.25 C 603.76 548.40, 604.48 548.08, 605.61 545.73 C 606.74 543.37, 606.92 541.69, 608.81 537.48 C 610.71 533.27, 612.08 530.47, 615.07 524.67 C 618.07 518.86, 620.48 515.12, 623.79 508.44 C 627.11 501.76, 628.96 498.00, 631.66 491.28 C 634.35 484.56, 635.85 480.86, 637.25 474.84 C 638.66 468.82, 639.33 465.77, 638.68 461.18 C 638.03 456.59, 637.06 454.25, 634.00 451.89 C 630.93 449.52, 628.41 449.10, 623.34 449.36 C 618.26 449.62, 615.15 450.63, 608.60 453.20 C 602.06 455.76, 598.02 457.79, 590.62 462.19 C 583.22 466.59, 578.97 469.52, 571.60 475.20 C 564.23 480.88, 560.34 484.51, 553.76 490.58 C 547.17 496.65, 543.77 500.02, 538.68 505.56 C 533.58 511.11, 531.55 514.10, 528.28 518.30 C 525.01 522.50, 523.37 524.33, 522.32 526.57 C 521.28 528.81, 522.08 529.90, 523.05 529.50 C 524.02 529.10, 524.98 527.87, 527.16 524.58 C 529.34 521.30, 530.44 518.61, 533.95 513.08 C 537.45 507.56, 539.94 503.97, 544.69 496.96 C 549.45 489.95, 552.36 485.96, 557.70 478.05 C 563.05 470.14, 565.97 465.87, 571.41 457.40 C 576.85 448.92, 579.78 444.25, 584.92 435.67 C 590.06 427.10, 592.48 422.50, 597.11 414.52 C 601.74 406.53, 604.14 402.59, 608.07 395.74 C 612.00 388.89, 613.89 385.37, 616.78 380.29 C 619.67 375.20, 620.92 373.49, 622.53 370.31 C 624.13 367.13, 624.85 365.88, 624.81 364.40 C 624.76 362.93, 623.63 362.23, 622.31 362.94" style="stroke: black; fill: black;"/><path d="M 686.58,505.47 C 687.53 506.50, 688.88 507.54, 691.62 507.70 C 694.36 507.86, 696.16 507.05, 700.30 506.26 C 704.45 505.48, 707.23 504.99, 712.34 503.78 C 717.45 502.57, 720.57 501.82, 725.86 500.21 C 731.15 498.60, 733.89 497.42, 738.78 495.72 C 743.67 494.03, 746.33 493.42, 750.33 491.72 C 754.32 490.02, 756.48 489.37, 758.75 487.24 C 761.02 485.12, 761.60 483.48, 761.67 481.08 C 761.74 478.69, 761.30 476.97, 759.11 475.26 C 756.93 473.56, 755.02 472.97, 750.74 472.55 C 746.47 472.13, 743.59 472.24, 737.74 473.16 C 731.89 474.08, 728.45 474.94, 721.49 477.16 C 714.53 479.38, 710.34 480.87, 702.95 484.27 C 695.56 487.68, 691.30 489.78, 684.54 494.18 C 677.78 498.59, 674.46 501.40, 669.16 506.31 C 663.85 511.22, 661.29 513.85, 658.02 518.74 C 654.75 523.64, 653.34 526.19, 652.79 530.81 C 652.25 535.42, 652.94 538.09, 655.31 541.83 C 657.69 545.57, 659.95 547.18, 664.66 549.51 C 669.38 551.83, 672.03 552.44, 678.87 553.48 C 685.70 554.52, 690.23 554.62, 698.84 554.69 C 707.44 554.77, 712.52 554.49, 721.89 553.86 C 731.26 553.22, 736.33 552.53, 745.70 551.52 C 755.08 550.50, 760.59 549.81, 768.76 548.79 C 776.93 547.77, 780.90 547.32, 786.55 546.43 C 792.20 545.54, 795.00 545.20, 797.02 544.34 C 799.03 543.47, 798.79 542.22, 796.62 542.09 C 794.44 541.97, 791.78 542.90, 786.14 543.72 C 780.51 544.54, 776.57 545.10, 768.43 546.18 C 760.29 547.27, 754.78 548.09, 745.44 549.13 C 736.10 550.17, 731.04 550.83, 721.73 551.38 C 712.42 551.93, 707.35 552.11, 698.89 551.88 C 690.42 551.64, 685.91 551.36, 679.41 550.20 C 672.91 549.04, 670.53 548.19, 666.39 546.07 C 662.25 543.96, 660.69 542.60, 658.71 539.63 C 656.74 536.66, 656.11 535.04, 656.52 531.23 C 656.93 527.41, 657.85 525.11, 660.77 520.55 C 663.70 515.99, 666.10 513.25, 671.16 508.45 C 676.22 503.64, 679.47 500.83, 686.07 496.53 C 692.67 492.23, 696.88 490.16, 704.15 486.94 C 711.43 483.71, 715.63 482.29, 722.45 480.39 C 729.28 478.49, 732.73 477.88, 738.25 477.44 C 743.78 477.00, 746.46 477.73, 750.09 478.21 C 753.73 478.70, 754.85 479.37, 756.43 479.86 C 758.02 480.35, 758.27 480.08, 758.00 480.65 C 757.72 481.23, 757.00 481.42, 755.06 482.75 C 753.12 484.08, 751.83 485.52, 748.29 487.31 C 744.74 489.09, 742.06 489.93, 737.33 491.68 C 732.60 493.44, 729.84 494.61, 724.65 496.06 C 719.45 497.52, 716.40 498.10, 711.36 498.97 C 706.31 499.84, 703.43 499.98, 699.42 500.44 C 695.40 500.89, 693.81 500.83, 691.30 501.26 C 688.79 501.68, 687.82 501.71, 686.88 502.55 C 685.93 503.39, 685.64 504.44, 686.58 505.47" style="stroke: black; fill: black;"/><path d="M 1175.66,388.27 C 1175.93 386.94, 1175.69 385.41, 1174.39 383.43 C 1173.09 381.46, 1172.04 379.98, 1169.16 378.40 C 1166.28 376.81, 1164.26 375.90, 1159.99 375.50 C 1155.72 375.10, 1153.35 375.39, 1147.82 376.40 C 1142.28 377.41, 1139.10 378.15, 1132.31 380.57 C 1125.53 382.98, 1121.76 384.43, 1113.90 388.48 C 1106.04 392.53, 1101.70 395.25, 1093.02 400.83 C 1084.34 406.40, 1079.41 409.51, 1070.50 416.36 C 1061.58 423.21, 1056.88 427.30, 1048.45 435.09 C 1040.02 442.87, 1035.64 447.35, 1028.34 455.28 C 1021.03 463.21, 1017.40 467.38, 1011.91 474.74 C 1006.42 482.09, 1004.03 485.74, 1000.90 492.06 C 997.77 498.37, 996.62 501.19, 996.27 506.30 C 995.91 511.41, 996.42 513.74, 999.12 517.60 C 1001.81 521.46, 1004.31 523.04, 1009.73 525.60 C 1015.16 528.16, 1018.87 529.07, 1026.25 530.40 C 1033.64 531.74, 1037.78 531.90, 1046.68 532.28 C 1055.58 532.66, 1061.60 532.42, 1070.75 532.28 C 1079.90 532.15, 1085.07 531.94, 1092.45 531.59 C 1099.83 531.25, 1104.63 531.28, 1107.64 530.56 C 1110.64 529.85, 1110.53 528.32, 1107.46 528.02 C 1104.40 527.71, 1099.68 528.72, 1092.33 529.04 C 1084.98 529.37, 1079.82 529.54, 1070.71 529.64 C 1061.61 529.74, 1055.59 530.02, 1046.81 529.56 C 1038.03 529.11, 1033.95 528.80, 1026.83 527.38 C 1019.71 525.96, 1016.20 524.82, 1011.22 522.46 C 1006.24 520.10, 1004.31 518.76, 1001.94 515.57 C 999.57 512.38, 999.12 510.98, 999.38 506.50 C 999.64 502.03, 1000.39 499.29, 1003.25 493.19 C 1006.12 487.10, 1008.38 483.36, 1013.69 476.04 C 1019.00 468.73, 1022.59 464.53, 1029.80 456.62 C 1037.02 448.72, 1041.37 444.24, 1049.76 436.51 C 1058.14 428.78, 1062.83 424.72, 1071.72 417.96 C 1080.61 411.20, 1085.55 408.14, 1094.22 402.71 C 1102.89 397.29, 1107.26 394.64, 1115.08 390.83 C 1122.90 387.02, 1126.67 385.71, 1133.34 383.66 C 1140.01 381.60, 1143.27 381.08, 1148.41 380.56 C 1153.56 380.04, 1155.70 380.20, 1159.08 381.05 C 1162.46 381.91, 1163.21 383.45, 1165.30 384.84 C 1167.39 386.23, 1167.99 386.95, 1169.54 388.00 C 1171.09 389.05, 1171.82 390.02, 1173.04 390.08 C 1174.26 390.13, 1175.39 389.60, 1175.66 388.27" style="stroke: black; fill: black;"/><path d="M 1292.58,475.82 C 1292.53 474.61, 1292.37 473.28, 1290.51 471.88 C 1288.65 470.47, 1287.01 469.45, 1283.28 468.78 C 1279.55 468.11, 1277.01 468.05, 1271.88 468.51 C 1266.76 468.96, 1263.67 469.53, 1257.66 471.06 C 1251.66 472.59, 1248.30 473.61, 1241.85 476.17 C 1235.41 478.73, 1231.83 480.29, 1225.44 483.88 C 1219.04 487.46, 1215.80 489.99, 1209.88 494.10 C 1203.95 498.22, 1200.51 500.32, 1195.81 504.46 C 1191.10 508.59, 1189.16 510.84, 1186.33 514.78 C 1183.51 518.73, 1182.41 520.63, 1181.67 524.18 C 1180.93 527.74, 1180.99 529.73, 1182.63 532.54 C 1184.27 535.34, 1186.33 536.88, 1189.87 538.19 C 1193.41 539.51, 1195.77 539.42, 1200.32 539.12 C 1204.88 538.83, 1207.42 538.17, 1212.65 536.74 C 1217.88 535.30, 1220.86 534.46, 1226.49 531.94 C 1232.11 529.42, 1234.88 527.74, 1240.78 524.14 C 1246.67 520.54, 1249.92 518.26, 1255.99 513.94 C 1262.06 509.61, 1265.48 507.14, 1271.11 502.51 C 1276.74 497.89, 1279.56 495.17, 1284.12 490.80 C 1288.69 486.43, 1290.95 484.19, 1293.93 480.65 C 1296.92 477.11, 1298.43 475.33, 1299.02 473.10 C 1299.62 470.87, 1298.51 469.45, 1296.90 469.51 C 1295.29 469.56, 1293.62 470.41, 1290.96 473.39 C 1288.29 476.37, 1286.71 479.36, 1283.58 484.41 C 1280.45 489.46, 1278.55 492.99, 1275.32 498.63 C 1272.09 504.28, 1270.18 507.43, 1267.44 512.63 C 1264.69 517.84, 1263.13 520.26, 1261.60 524.67 C 1260.06 529.08, 1259.55 531.21, 1259.77 534.67 C 1259.98 538.12, 1260.98 539.54, 1262.67 541.93 C 1264.35 544.31, 1266.05 545.51, 1268.21 546.59 C 1270.37 547.66, 1271.86 547.45, 1273.47 547.28 C 1275.08 547.11, 1275.70 546.46, 1276.26 545.74 C 1276.82 545.02, 1276.64 544.39, 1276.25 543.67 C 1275.87 542.96, 1275.35 542.76, 1274.34 542.15 C 1273.32 541.54, 1272.66 541.37, 1271.20 540.63 C 1269.73 539.88, 1268.29 539.69, 1267.03 538.41 C 1265.77 537.13, 1265.16 536.73, 1264.88 534.24 C 1264.61 531.76, 1264.46 529.95, 1265.64 525.99 C 1266.83 522.02, 1268.21 519.47, 1270.83 514.41 C 1273.45 509.34, 1275.39 506.14, 1278.75 500.67 C 1282.11 495.20, 1284.30 491.83, 1287.63 487.06 C 1290.95 482.29, 1293.26 479.98, 1295.37 476.82 C 1297.48 473.66, 1298.12 472.40, 1298.17 471.25 C 1298.21 470.11, 1297.11 469.75, 1295.60 471.09 C 1294.10 472.43, 1293.40 474.48, 1290.63 477.94 C 1287.86 481.41, 1286.05 483.98, 1281.75 488.42 C 1277.46 492.86, 1274.66 495.54, 1269.15 500.15 C 1263.64 504.76, 1260.23 507.21, 1254.22 511.45 C 1248.21 515.68, 1244.94 517.92, 1239.10 521.34 C 1233.27 524.76, 1230.54 526.31, 1225.04 528.54 C 1219.54 530.77, 1216.59 531.42, 1211.61 532.50 C 1206.62 533.58, 1204.08 533.88, 1200.11 533.93 C 1196.14 533.99, 1194.39 533.59, 1191.75 532.77 C 1189.11 531.95, 1188.00 531.36, 1186.91 529.83 C 1185.83 528.31, 1185.79 527.72, 1186.32 525.16 C 1186.86 522.59, 1187.25 520.65, 1189.60 517.01 C 1191.95 513.37, 1193.65 511.04, 1198.06 506.96 C 1202.47 502.89, 1205.88 500.72, 1211.65 496.64 C 1217.43 492.56, 1220.66 490.04, 1226.94 486.57 C 1233.22 483.10, 1236.73 481.63, 1243.05 479.29 C 1249.37 476.96, 1252.73 476.04, 1258.53 474.89 C 1264.34 473.74, 1267.40 473.44, 1272.07 473.54 C 1276.74 473.63, 1278.79 474.59, 1281.90 475.36 C 1285.01 476.12, 1285.84 476.85, 1287.62 477.36 C 1289.40 477.88, 1289.79 478.22, 1290.78 477.91 C 1291.77 477.60, 1292.63 477.02, 1292.58 475.82" style="stroke: black; fill: black;"/><path d="M 1412.58,480.38 C 1412.83 479.25, 1413.00 477.47, 1411.43 476.04 C 1409.86 474.62, 1408.08 473.51, 1404.72 473.25 C 1401.36 472.99, 1399.14 473.40, 1394.62 474.72 C 1390.10 476.04, 1387.50 477.32, 1382.12 479.85 C 1376.74 482.37, 1373.30 484.02, 1367.72 487.33 C 1362.14 490.65, 1358.83 492.60, 1354.23 496.44 C 1349.62 500.27, 1347.66 502.80, 1344.70 506.51 C 1341.74 510.23, 1340.02 511.94, 1339.43 515.00 C 1338.83 518.06, 1339.69 519.95, 1341.74 521.80 C 1343.80 523.66, 1345.89 524.39, 1349.69 524.28 C 1353.48 524.17, 1355.77 523.22, 1360.73 521.26 C 1365.68 519.29, 1368.65 517.62, 1374.47 514.44 C 1380.30 511.26, 1383.75 509.12, 1389.83 505.36 C 1395.91 501.59, 1399.48 499.26, 1404.87 495.62 C 1410.25 491.98, 1413.45 489.76, 1416.75 487.15 C 1420.06 484.55, 1421.00 483.27, 1421.40 482.59 C 1421.80 481.91, 1420.28 481.72, 1418.76 483.76 C 1417.25 485.81, 1416.47 488.10, 1413.82 492.79 C 1411.17 497.49, 1409.06 500.90, 1405.51 507.24 C 1401.97 513.58, 1399.97 517.49, 1396.10 524.51 C 1392.22 531.52, 1389.94 535.24, 1386.14 542.33 C 1382.33 549.43, 1380.55 553.06, 1377.05 559.98 C 1373.55 566.91, 1372.05 570.64, 1368.63 576.94 C 1365.20 583.25, 1363.41 586.35, 1359.91 591.52 C 1356.41 596.70, 1354.67 598.70, 1351.12 602.84 C 1347.56 606.98, 1345.81 609.07, 1342.14 612.23 C 1338.47 615.38, 1336.59 616.58, 1332.76 618.63 C 1328.94 620.67, 1326.93 621.37, 1323.01 622.46 C 1319.09 623.54, 1317.14 623.92, 1313.17 624.06 C 1309.20 624.20, 1307.16 623.92, 1303.17 623.15 C 1299.19 622.38, 1296.90 621.74, 1293.26 620.21 C 1289.62 618.69, 1287.76 617.78, 1284.97 615.51 C 1282.18 613.24, 1281.05 611.59, 1279.31 608.87 C 1277.56 606.15, 1277.30 604.16, 1276.26 601.91 C 1275.21 599.66, 1274.69 599.07, 1274.08 597.61 C 1273.47 596.15, 1273.82 595.28, 1273.20 594.63 C 1272.59 593.98, 1271.81 593.64, 1271.02 594.34 C 1270.23 595.05, 1269.47 596.11, 1269.25 598.15 C 1269.03 600.19, 1268.85 601.72, 1269.91 604.55 C 1270.98 607.37, 1272.20 609.25, 1274.57 612.26 C 1276.94 615.28, 1278.40 617.13, 1281.76 619.64 C 1285.11 622.16, 1287.25 623.19, 1291.35 624.85 C 1295.46 626.51, 1297.88 627.15, 1302.28 627.94 C 1306.69 628.73, 1308.98 629.01, 1313.38 628.78 C 1317.77 628.56, 1319.98 628.10, 1324.27 626.81 C 1328.56 625.52, 1330.74 624.68, 1334.82 622.34 C 1338.90 619.99, 1340.90 618.55, 1344.68 615.09 C 1348.46 611.63, 1350.18 609.41, 1353.74 605.04 C 1357.30 600.67, 1359.01 598.58, 1362.49 593.23 C 1365.97 587.89, 1367.74 584.70, 1371.14 578.29 C 1374.53 571.88, 1375.98 568.13, 1379.46 561.20 C 1382.93 554.26, 1384.68 550.67, 1388.52 543.62 C 1392.36 536.58, 1394.65 532.88, 1398.68 525.97 C 1402.71 519.07, 1404.87 515.28, 1408.68 509.10 C 1412.50 502.93, 1414.85 499.79, 1417.74 495.11 C 1420.63 490.43, 1422.47 488.61, 1423.16 485.73 C 1423.84 482.84, 1422.95 481.10, 1421.17 480.68 C 1419.38 480.27, 1417.91 481.26, 1414.24 483.66 C 1410.57 486.05, 1408.06 488.91, 1402.82 492.67 C 1397.58 496.43, 1394.06 498.77, 1388.04 502.45 C 1382.02 506.13, 1378.50 508.19, 1372.71 511.06 C 1366.93 513.94, 1363.80 515.29, 1359.12 516.82 C 1354.44 518.35, 1352.30 518.34, 1349.31 518.69 C 1346.32 519.05, 1345.23 519.06, 1344.17 518.58 C 1343.10 518.10, 1343.20 518.16, 1344.00 516.29 C 1344.80 514.41, 1345.62 512.58, 1348.16 509.19 C 1350.70 505.81, 1352.41 503.07, 1356.71 499.36 C 1361.01 495.65, 1364.22 493.75, 1369.65 490.64 C 1375.08 487.53, 1378.62 485.91, 1383.85 483.81 C 1389.08 481.70, 1391.75 480.70, 1395.81 480.12 C 1399.87 479.54, 1401.59 480.74, 1404.15 480.91 C 1406.71 481.09, 1407.41 480.84, 1408.61 480.99 C 1409.81 481.15, 1409.35 481.80, 1410.14 481.68 C 1410.94 481.56, 1412.32 481.51, 1412.58 480.38" style="stroke: black; fill: black;"/><path d="M 1465.83,516.32 C 1467.03 516.94, 1468.19 517.14, 1471.23 516.68 C 1474.27 516.23, 1476.14 515.27, 1481.01 514.03 C 1485.88 512.79, 1489.53 512.09, 1495.58 510.46 C 1501.63 508.84, 1504.99 507.82, 1511.26 505.91 C 1517.52 504.00, 1521.26 502.96, 1526.91 500.91 C 1532.56 498.87, 1535.44 497.96, 1539.50 495.68 C 1543.57 493.41, 1546.01 491.21, 1547.24 489.54 C 1548.47 487.87, 1547.55 486.76, 1545.66 487.33 C 1543.76 487.90, 1541.75 490.37, 1537.75 492.39 C 1533.75 494.42, 1531.16 495.45, 1525.65 497.46 C 1520.15 499.46, 1516.43 500.61, 1510.22 502.41 C 1504.01 504.21, 1500.66 505.11, 1494.60 506.46 C 1488.55 507.81, 1484.87 508.23, 1479.94 509.14 C 1475.01 510.04, 1472.89 510.10, 1469.94 510.99 C 1467.00 511.88, 1466.04 512.52, 1465.22 513.59 C 1464.40 514.65, 1464.62 515.71, 1465.83 516.32" style="stroke: black; fill: black;"/><path d="M 1520.46,477.67 C 1517.50 478.17, 1513.59 480.23, 1506.74 482.99 C 1499.89 485.76, 1494.79 487.70, 1486.22 491.51 C 1477.64 495.31, 1471.58 497.69, 1463.87 502.02 C 1456.15 506.36, 1452.92 508.81, 1447.63 513.21 C 1442.35 517.60, 1440.21 519.97, 1437.44 524.02 C 1434.67 528.07, 1433.49 529.97, 1433.79 533.44 C 1434.09 536.90, 1435.53 539.00, 1438.92 541.36 C 1442.32 543.72, 1445.01 544.21, 1450.76 545.24 C 1456.50 546.27, 1460.03 546.36, 1467.67 546.52 C 1475.31 546.68, 1479.93 546.57, 1488.95 546.03 C 1497.98 545.49, 1503.31 544.83, 1512.80 543.84 C 1522.29 542.86, 1528.02 542.01, 1536.41 541.10 C 1544.80 540.19, 1548.82 539.98, 1554.74 539.30 C 1560.67 538.62, 1563.84 538.49, 1566.04 537.70 C 1568.24 536.91, 1568.06 535.57, 1565.74 535.36 C 1563.43 535.15, 1560.38 536.02, 1554.45 536.64 C 1548.53 537.27, 1544.50 537.55, 1536.12 538.49 C 1527.74 539.43, 1522.01 540.39, 1512.55 541.36 C 1503.08 542.34, 1497.77 542.98, 1488.82 543.37 C 1479.86 543.76, 1475.25 543.72, 1467.79 543.32 C 1460.33 542.93, 1456.80 542.51, 1451.51 541.38 C 1446.22 540.26, 1444.04 539.37, 1441.33 537.71 C 1438.62 536.04, 1438.16 535.43, 1437.96 533.08 C 1437.76 530.73, 1438.01 529.48, 1440.32 525.95 C 1442.62 522.41, 1444.53 519.72, 1449.51 515.41 C 1454.48 511.10, 1457.64 508.68, 1465.20 504.39 C 1472.76 500.10, 1478.80 497.76, 1487.31 493.98 C 1495.82 490.21, 1500.91 488.22, 1507.75 485.52 C 1514.59 482.82, 1518.98 482.06, 1521.52 480.49 C 1524.06 478.92, 1523.41 477.17, 1520.46 477.67" style="stroke: black; fill: black;"/></svg>