<?xml version="1.0" encoding="UTF-8"?>
<svg id="walking-man" xmlns="http://www.w3.org/2000/svg" viewBox="0 0 65.52 120.53">
  <defs>
    <style>
      .cls-1 {
        fill: #fff;
        stroke: #231f20;
        stroke-miterlimit: 10;
      }
    </style>
  </defs>
  <circle id="head" class="cls-1" cx="39.31" cy="11" r="10.5"/>
  <path id="body" class="cls-1" d="m39.31,69c-.03-.81-.06-2.24,0-4,.31-9.43,2.7-14.51,4-26,.48-4.22.53-6.75-1-9-2.03-2.98-5.17-3.8-6-4-1.21-.29-2.81-.45-5,0-13.01,2.65-21,12-21,12-7.13,8.35-12.87,22.49-8,28,1.85,2.09,5.5,3.25,8,2,2.65-1.33,3.67-5.19,3-8-.65-2.73-2.55-3.02-3-5-1.21-5.3,10.03-13.98,13-12,2.76,1.84-.26,13.76-2,18-.22.55-.85,1.99-1,4,0,0-.23,2.94,1,6,2.64,6.58,14.81,8.8,19,17,3.92,7.65-2.96,13.02,2,25,1.03,2.49,2.79,6.59,6,7,2.8.36,5.84-2.19,7-5,1.52-3.7-.87-6.26-2-12-1.78-9.07,2.78-9.86,1-17-2.49-9.99-13.4-16.4-15.74-17.78-.91-.53-1.69-.94-2.26-1.22"/>
  <path id="leg" class="cls-1" d="m21.31,76l11,9-10,31s-10,10-13-4l12-36Z"/>
  <path id="arm" class="cls-1" d="m43.31,53l2-11,19,14s4,10-7,8l-14-11Z"/>
</svg>